<svg width="44" height="44" viewBox="0 0 44 44" fill="none" xmlns="http://www.w3.org/2000/svg">
<path d="M37 44C16.598 44 0 27.402 0 7.00001C0 6.73501 0.105 6.48001 0.293 6.29301L6.293 0.293006C6.684 -0.0979941 7.316 -0.0979941 7.707 0.293006L17.707 10.293C18.098 10.684 18.098 11.316 17.707 11.707L12.414 17L27 31.586L32.293 26.293C32.684 25.902 33.316 25.902 33.707 26.293L43.707 36.293C44.098 36.684 44.098 37.316 43.707 37.707L37.707 43.707C37.52 43.895 37.265 44 37 44Z" fill="#24A05A"/>
</svg>
