<svg width="211" height="211" viewBox="0 0 211 211" fill="none" xmlns="http://www.w3.org/2000/svg">
<g opacity="0.1">
<path d="M134.604 54.8361C140.285 54.8361 144.907 50.2143 144.907 44.5334C144.907 38.8524 140.285 34.2302 134.604 34.2302C128.923 34.2302 124.302 38.8524 124.302 44.5334C124.302 46.8535 125.073 48.9965 126.373 50.7208L109.445 74.3763C108.435 74.0445 107.357 73.8624 106.237 73.8624C103.53 73.8624 101.064 74.9137 99.224 76.6272L87.9408 70.2247C88.0913 69.5258 88.172 68.8013 88.172 68.0582C88.172 62.3773 83.5502 57.7555 77.8693 57.7555C72.1884 57.7555 67.5666 62.3773 67.5666 68.0582C67.5666 68.8013 67.6473 69.5258 67.7978 70.2247L56.5146 76.6272C54.6741 74.9137 52.2089 73.8628 49.5018 73.8628C43.8208 73.8628 39.199 78.485 39.199 84.1659C39.199 89.8469 43.8208 94.4691 49.5018 94.4691C55.1827 94.4691 59.8045 89.8469 59.8045 84.1659C59.8045 83.4229 59.7237 82.6984 59.5733 81.9995L70.8564 75.5969C72.6969 77.3105 75.1622 78.3618 77.8693 78.3618C80.5765 78.3618 83.0413 77.3105 84.8822 75.5974L96.1653 81.9999C96.0149 82.6988 95.9341 83.4233 95.9341 84.1664C95.9341 89.8473 100.556 94.4695 106.237 94.4695C111.918 94.4695 116.54 89.8473 116.54 84.1664C116.54 81.8458 115.768 79.7024 114.469 77.9781L131.397 54.3226C132.406 54.654 133.484 54.8361 134.604 54.8361ZM134.604 40.4119C136.877 40.4119 138.725 42.2606 138.725 44.5334C138.725 46.8057 136.877 48.6545 134.604 48.6545C132.332 48.6545 130.483 46.8057 130.483 44.5334C130.483 42.2606 132.332 40.4119 134.604 40.4119ZM49.5005 88.2866C47.2281 88.2866 45.3794 86.4379 45.3794 84.1651C45.3794 81.8923 47.2281 80.0436 49.5005 80.0436C51.7729 80.0436 53.6216 81.8923 53.6216 84.1651C53.6216 86.4379 51.7729 88.2866 49.5005 88.2866ZM77.8685 72.1793C75.5961 72.1793 73.7474 70.3306 73.7474 68.0578C73.7474 65.7854 75.5961 63.9367 77.8685 63.9367C80.1409 63.9367 81.9896 65.7854 81.9896 68.0578C81.99 70.3306 80.1409 72.1793 77.8685 72.1793ZM106.236 88.2866C103.964 88.2866 102.115 86.4379 102.115 84.1651C102.115 81.8923 103.964 80.0436 106.236 80.0436C108.509 80.0436 110.358 81.8923 110.358 84.1651C110.358 86.4379 108.509 88.2866 106.236 88.2866Z" fill="#AF414A"/>
<path d="M172.59 155.351H150.96H33.1451H8.7429C7.3306 155.351 6.18164 154.202 6.18164 152.79V25.2751C6.18164 23.8628 7.3306 22.7139 8.7429 22.7139H23.3134C25.0204 22.7139 26.4043 21.3304 26.4043 19.623C26.4043 17.9157 25.0204 16.5322 23.3134 16.5322H8.7429C3.92204 16.5322 0 20.4543 0 25.2751V152.79C0 157.61 3.92204 161.532 8.7429 161.532H30.0543V168.335C30.0543 172.21 33.207 175.362 37.082 175.362H68.0207L53.4568 203.797C52.6787 205.317 53.2791 207.179 54.7986 207.957C55.2494 208.189 55.7308 208.298 56.2051 208.298C57.3281 208.298 58.4116 207.684 58.9584 206.615L74.966 175.362H109.139L125.146 206.615C125.694 207.684 126.777 208.298 127.9 208.298C128.374 208.298 128.855 208.188 129.306 207.957C130.826 207.179 131.427 205.317 130.648 203.797L116.084 175.362H147.023C150.898 175.362 154.051 172.21 154.051 168.335V161.532H172.59C174.297 161.532 175.681 160.149 175.681 158.442C175.681 156.734 174.297 155.351 172.59 155.351ZM147.869 168.335C147.869 168.801 147.489 169.181 147.023 169.181H37.082C36.6155 169.181 36.236 168.801 36.236 168.335V161.532H147.869V168.335Z" fill="#AF414A"/>
<path d="M35.6767 22.7138H77.9888H106.116H175.362C176.774 22.7138 177.923 23.8628 177.923 25.2751V54.663C177.923 56.3704 179.307 57.7539 181.014 57.7539C182.721 57.7539 184.105 56.3704 184.105 54.663V25.2751C184.105 20.4542 180.182 16.5322 175.362 16.5322H109.207V10.4569C109.207 6.18125 105.728 2.70264 101.452 2.70264H82.6527C78.377 2.70264 74.898 6.18125 74.898 10.4569V16.5322H35.6767C33.9698 16.5322 32.5859 17.9157 32.5859 19.623C32.5859 21.3304 33.9698 22.7138 35.6767 22.7138ZM81.0796 10.4569C81.0796 9.58981 81.7852 8.88428 82.6527 8.88428H101.452C102.319 8.88428 103.025 9.58981 103.025 10.4569V16.5322H81.0801V10.4569H81.0796Z" fill="#AF414A"/>
<path d="M43.2311 110.271C41.5241 110.271 40.1403 111.654 40.1403 113.361V140.673C40.1403 142.38 41.5241 143.764 43.2311 143.764H55.7703C57.4773 143.764 58.8612 142.38 58.8612 140.673V113.361C58.8612 111.654 57.4773 110.271 55.7703 110.271H43.2311ZM52.6795 137.582H46.3219V116.453H52.6795V137.582Z" fill="#AF414A"/>
<path d="M71.5986 94.4752C69.8917 94.4752 68.5078 95.8587 68.5078 97.566V140.673C68.5078 142.38 69.8917 143.764 71.5986 143.764H84.1379C85.8448 143.764 87.2287 142.38 87.2287 140.673V97.566C87.2287 95.8587 85.8448 94.4752 84.1379 94.4752H71.5986ZM81.0475 137.582H74.6899V100.657H81.0475V137.582Z" fill="#AF414A"/>
<path d="M99.9666 110.271C98.2596 110.271 96.8758 111.654 96.8758 113.361V140.673C96.8758 142.38 98.2596 143.764 99.9666 143.764H112.506C114.213 143.764 115.597 142.38 115.597 140.673V113.361C115.597 111.654 114.213 110.271 112.506 110.271H99.9666ZM109.415 137.582H103.057V116.453H109.415V137.582Z" fill="#AF414A"/>
<path d="M128.335 128.509C126.628 128.509 125.244 129.892 125.244 131.6V140.673C125.244 142.381 126.628 143.764 128.335 143.764H140.874C142.581 143.764 143.965 142.381 143.965 140.673C143.965 138.966 142.581 137.582 140.874 137.582H131.425V131.6C131.425 129.892 130.042 128.509 128.335 128.509Z" fill="#AF414A"/>
<path d="M209.424 158.258L191.692 127.545C196.184 122.757 199.456 116.906 201.203 110.385C203.996 99.9621 202.562 89.0754 197.167 79.7304C186.029 60.4383 161.274 53.8062 141.983 64.9435C122.692 76.0808 116.059 100.837 127.196 120.128C132.592 129.473 141.303 136.157 151.726 138.951C155.207 139.883 158.738 140.344 162.247 140.344C165.314 140.344 168.363 139.992 171.345 139.293L189.073 170.007C191.246 173.773 195.203 175.88 199.268 175.879C201.259 175.879 203.277 175.373 205.123 174.308C208.748 172.216 211 168.314 211 164.126C211 162.074 210.455 160.046 209.424 158.258ZM153.326 132.979C144.498 130.614 137.119 124.952 132.549 117.037C123.116 100.698 128.734 79.7304 145.073 70.2968C150.448 67.1936 156.322 65.7199 162.124 65.7199C173.958 65.7199 185.483 71.8575 191.813 82.8212C196.383 90.7362 197.597 99.9567 195.231 108.785C192.866 117.613 187.204 124.991 179.289 129.561C171.374 134.131 162.154 135.344 153.326 132.979ZM202.033 168.954C199.374 170.489 195.962 169.575 194.427 166.917L177.371 137.367C179.08 136.669 180.754 135.854 182.381 134.915C184.008 133.975 185.549 132.929 187.009 131.797L204.07 161.348C204.56 162.197 204.818 163.158 204.818 164.127C204.818 166.112 203.751 167.962 202.033 168.954Z" fill="#AF414A"/>
<path d="M190.206 108.637C192.388 101.608 191.868 94.0826 188.742 87.4476C188.015 85.903 186.173 85.2412 184.629 85.9685C183.085 86.6963 182.423 88.5376 183.15 90.0818C185.616 95.3156 186.025 101.254 184.302 106.803C182.57 112.383 178.827 117.066 173.763 119.989C168.405 123.084 162.162 123.904 156.186 122.303C150.21 120.702 145.214 116.869 142.121 111.511C135.734 100.449 139.538 86.2545 150.6 79.8681C158.687 75.1993 168.724 75.8232 176.171 81.4576C177.533 82.4879 179.471 82.2196 180.501 80.858C181.531 79.4968 181.263 77.5582 179.901 76.5283C170.467 69.3902 157.752 68.6002 147.508 74.5144C140.72 78.4335 135.864 84.7619 133.835 92.3332C131.807 99.9044 132.848 107.813 136.767 114.601C140.686 121.39 147.015 126.245 154.586 128.274C157.114 128.952 159.68 129.287 162.229 129.287C167.314 129.287 172.333 127.953 176.854 125.343C183.269 121.639 188.011 115.707 190.206 108.637Z" fill="#AF414A"/>
</g>
</svg>
