<svg width="204" height="204" viewBox="0 0 204 204" fill="none" xmlns="http://www.w3.org/2000/svg">
<g opacity="0.1">
<path d="M204 40.0992L163.807 0H113.167L93.2092 19.8923C43.5851 15.7518 3.57273 43.6683 3.01223 44.0697C1.38859 45.2269 1.0089 47.4869 2.17329 49.1142C2.87843 50.0978 3.98858 50.6257 5.11682 50.6257C5.84366 50.6257 6.57773 50.4051 7.21417 49.9495C7.71681 49.5915 42.334 25.4467 86.3386 26.7376L21.6931 91.1733L21.7221 91.2023L0 112.87L90.931 204L127.237 167.792C134.693 171.697 143.368 173.617 151.95 173.614C164.61 173.614 177.027 169.499 184.86 161.666C211.5 135.022 200.926 105.797 197.31 97.9029L203.996 91.2312V40.0992H204ZM160.82 7.23225L196.768 43.1006V88.2298L126.116 158.65C111.348 148.062 106.853 128.195 113.485 102.145C113.98 100.21 112.809 98.2392 110.874 97.7474C108.932 97.2303 106.972 98.4237 106.477 100.358C97.1146 137.123 109.695 155.255 120.938 163.81L112.646 172.077L31.9521 91.2131L95.8851 27.4464C111.066 29.1821 127.096 34.1941 143.061 44.3228C142.92 45.122 142.815 45.9356 142.815 46.7746C142.815 54.6216 149.198 61.004 157.045 61.004C164.892 61.004 171.278 54.6216 171.278 46.7746C171.278 38.9276 164.892 32.5451 157.045 32.5451C152.647 32.5451 148.76 34.5918 146.149 37.7379C131.363 28.4914 116.544 23.3385 102.329 21.0241L116.154 7.23225H160.82ZM151.205 49.9025C152.803 51.1031 155.07 50.7812 156.264 49.1793C157.464 47.5846 157.139 45.3173 155.54 44.1203C154.423 43.285 153.302 42.5473 152.185 41.7626C153.447 40.5367 155.157 39.7774 157.045 39.7774C160.903 39.7774 164.045 42.9162 164.045 46.7782C164.045 50.633 160.907 53.7754 157.045 53.7754C154.141 53.7754 151.649 51.9962 150.59 49.4722C150.796 49.6204 151.002 49.747 151.205 49.9025ZM10.2264 112.885L26.8316 96.3227L107.551 177.215L90.9455 193.777L10.2264 112.885ZM179.747 156.553C170.432 165.861 149.48 170.106 132.629 162.415L191.843 103.356C195.441 112.31 201.263 135.033 179.747 156.553Z" fill="#121E28"/>
</g>
</svg>
