<svg width="226" height="226" viewBox="0 0 226 226" fill="none" xmlns="http://www.w3.org/2000/svg">
<g opacity="0.1">
<path d="M113.046 221.801C119.876 221.801 125.412 216.265 125.412 209.435C125.412 202.606 119.876 197.069 113.046 197.069C106.217 197.069 100.68 202.606 100.68 209.435C100.68 216.265 106.217 221.801 113.046 221.801Z" fill="#DB9D47"/>
<path d="M195.085 221.801C201.915 221.801 207.451 216.265 207.451 209.435C207.451 202.606 201.915 197.069 195.085 197.069C188.256 197.069 182.719 202.606 182.719 209.435C182.719 216.265 188.256 221.801 195.085 221.801Z" fill="#DB9D47"/>
<path d="M30.9146 221.801C37.7441 221.801 43.2805 216.265 43.2805 209.435C43.2805 202.606 37.7441 197.069 30.9146 197.069C24.0852 197.069 18.5488 202.606 18.5488 209.435C18.5488 216.265 24.0852 221.801 30.9146 221.801Z" fill="#DB9D47"/>
<path d="M204.36 14.0731C204.36 6.32136 198.038 0 190.287 0H35.8056C28.0539 0 21.7325 6.32136 21.7325 14.0731V45.9567C21.7325 49.7864 23.3013 53.2932 25.793 55.831C23.3013 58.3687 21.7325 61.8755 21.7325 65.7052V97.5888C21.7325 101.419 23.3013 104.925 25.793 107.463C23.3013 110.001 21.7325 113.508 21.7325 117.337V149.221C21.7325 156.973 28.0539 163.294 35.8056 163.294H190.287C198.038 163.294 204.36 156.973 204.36 149.221V117.337C204.36 113.508 202.791 110.001 200.299 107.463C202.791 104.925 204.36 101.419 204.36 97.5888V65.7052C204.36 61.8755 202.791 58.3687 200.299 55.831C202.791 53.2932 204.36 49.7864 204.36 45.9567V14.0731ZM30.0841 14.0731C30.0841 10.9355 32.6219 8.39771 35.7595 8.39771H190.24C193.378 8.39771 195.962 10.9355 195.962 14.0731V45.9567C195.962 49.0943 193.424 51.6782 190.24 51.6782H35.8056C32.668 51.6782 30.1303 49.1405 30.1303 45.9567V14.0731H30.0841ZM196.008 65.7052V97.5888C196.008 100.726 193.47 103.264 190.287 103.264H35.8056C32.668 103.264 30.1303 100.726 30.1303 97.5888V65.7052C30.1303 62.5676 32.668 60.0298 35.8056 60.0298H190.287C193.424 60.0298 196.008 62.5676 196.008 65.7052ZM196.008 149.221C196.008 152.359 193.47 154.896 190.287 154.896H35.8056C32.668 154.896 30.1303 152.359 30.1303 149.221V117.337C30.1303 114.2 32.668 111.662 35.8056 111.662H190.287C193.424 111.662 196.008 114.2 196.008 117.337V149.221Z" fill="#DB9D47"/>
<path d="M111.2 34.1907H163.34C165.647 34.1907 167.539 32.2989 167.539 29.9918C167.539 27.6848 165.647 25.793 163.34 25.793H111.2C108.893 25.793 107.002 27.6848 107.002 29.9918C107.002 32.2989 108.893 34.1907 111.2 34.1907Z" fill="#DB9D47"/>
<path d="M68.6582 35.0212C71.4104 35.0212 73.6414 32.7901 73.6414 30.0379C73.6414 27.2858 71.4104 25.0547 68.6582 25.0547C65.906 25.0547 63.6749 27.2858 63.6749 30.0379C63.6749 32.7901 65.906 35.0212 68.6582 35.0212Z" fill="#DB9D47"/>
<path d="M111.2 85.8228H163.34C165.647 85.8228 167.539 83.931 167.539 81.6239C167.539 79.3168 165.647 77.425 163.34 77.425H111.2C108.893 77.425 107.002 79.3168 107.002 81.6239C107.048 83.9771 108.893 85.8228 111.2 85.8228Z" fill="#DB9D47"/>
<path d="M163.34 129.103H111.2C108.893 129.103 107.002 130.995 107.002 133.302C107.002 135.609 108.893 137.501 111.2 137.501H163.34C165.647 137.501 167.539 135.609 167.539 133.302C167.539 130.995 165.647 129.103 163.34 129.103Z" fill="#DB9D47"/>
<path d="M68.6582 86.6534C71.4104 86.6534 73.6414 84.4223 73.6414 81.6701C73.6414 78.918 71.4104 76.6869 68.6582 76.6869C65.906 76.6869 63.6749 78.918 63.6749 81.6701C63.6749 84.4223 65.906 86.6534 68.6582 86.6534Z" fill="#DB9D47"/>
<path d="M68.6582 138.285C71.4104 138.285 73.6414 136.054 73.6414 133.302C73.6414 130.55 71.4104 128.319 68.6582 128.319C65.906 128.319 63.6749 130.55 63.6749 133.302C63.6749 136.054 65.906 138.285 68.6582 138.285Z" fill="#DB9D47"/>
<path d="M195.085 192.871C187.426 192.871 180.966 198.131 179.074 205.236H129.057C127.534 199.469 123.013 194.947 117.245 193.424V180.32C117.245 178.013 115.353 176.121 113.046 176.121C110.739 176.121 108.847 178.013 108.847 180.32V193.424C103.08 194.947 98.5578 199.469 97.0351 205.236H46.8795C45.0339 198.131 38.5741 192.871 30.8685 192.871C21.7325 192.871 14.3038 200.299 14.3038 209.435C14.3038 218.571 21.7325 226 30.8685 226C38.5279 226 44.9877 220.74 46.8795 213.634H97.0351C98.8807 220.74 105.341 226 113.046 226C120.752 226 127.165 220.74 129.057 213.634H179.12C180.966 220.74 187.426 226 195.131 226C204.267 226 211.696 218.571 211.696 209.435C211.696 200.299 204.221 192.871 195.085 192.871ZM30.9146 217.602C26.3928 217.602 22.7015 213.911 22.7015 209.389C22.7015 204.867 26.3928 201.176 30.9146 201.176C35.4365 201.176 39.1278 204.867 39.1278 209.389C39.1278 213.911 35.3903 217.602 30.9146 217.602ZM113.046 217.602C108.524 217.602 104.833 213.911 104.833 209.389C104.833 204.867 108.524 201.176 113.046 201.176C117.568 201.176 121.259 204.867 121.259 209.389C121.259 213.911 117.568 217.602 113.046 217.602ZM195.085 217.602C190.563 217.602 186.872 213.911 186.872 209.389C186.872 204.867 190.563 201.176 195.085 201.176C199.607 201.176 203.298 204.867 203.298 209.389C203.298 213.911 199.607 217.602 195.085 217.602Z" fill="#DB9D47"/>
</g>
</svg>
