<svg width="256" height="256" viewBox="0 0 256 256" fill="none" xmlns="http://www.w3.org/2000/svg">
<g opacity="0.1">
<path d="M244.234 224.451H239.968V113.2C249.601 107.001 256 96.193 256 83.911C256 83.2585 255.829 82.617 255.506 82.0505L225.749 29.9765C223.66 26.32 219.745 24.048 215.533 24.048H40.4665C36.255 24.048 32.3405 26.3195 30.2505 29.9765L0.494 82.0505C0.1705 82.617 0 83.259 0 83.911C0 96.193 6.399 107.001 16.032 113.2V224.451H11.766C9.695 224.451 8.016 226.13 8.016 228.201C8.016 230.272 9.695 231.951 11.766 231.951H244.234C246.305 231.951 247.984 230.272 247.984 228.201C247.984 226.13 246.305 224.451 244.234 224.451ZM7.7585 87.661H19.7805C21.8515 87.661 23.5305 85.982 23.5305 83.911C23.5305 81.84 21.8515 80.161 19.7805 80.161H10.212L36.7625 33.6975C37.5205 32.3715 38.9395 31.548 40.4665 31.548H215.533C217.06 31.548 218.48 32.3715 219.238 33.6975L245.788 80.161H236.217C234.145 80.161 232.467 81.84 232.467 83.911C232.467 85.982 234.145 87.661 236.217 87.661H248.241C246.408 100.953 234.975 111.223 221.187 111.223C207.399 111.223 195.973 100.952 194.139 87.661H220.186C222.258 87.661 223.936 85.982 223.936 83.911C223.936 81.84 222.258 80.161 220.186 80.161H35.8155C33.7445 80.161 32.0655 81.84 32.0655 83.911C32.0655 85.982 33.7445 87.661 35.8155 87.661H61.861C60.027 100.952 48.5995 111.223 34.8125 111.223C21.0245 111.223 9.592 100.953 7.7585 87.661ZM186.111 87.661C184.277 100.952 172.85 111.223 159.062 111.223C145.275 111.223 133.848 100.952 132.014 87.661H186.111ZM123.986 87.661C122.152 100.952 110.725 111.223 96.9375 111.223C83.1505 111.223 71.723 100.952 69.889 87.661H123.986ZM212.427 224.452H171.831V211.911H212.427V224.452ZM212.427 204.411H171.831V135.758H212.427V204.411ZM232.468 224.452H219.928V132.008C219.928 129.937 218.249 128.258 216.178 128.258H168.081C166.009 128.258 164.331 129.937 164.331 132.008V224.451H23.532V116.837C27.0725 118.053 30.8645 118.723 34.8125 118.723C48.36 118.723 60.1245 110.945 65.875 99.62C71.6255 110.945 83.39 118.723 96.9375 118.723C110.485 118.723 122.249 110.945 128 99.62C133.751 110.945 145.515 118.723 159.062 118.723C172.61 118.723 184.374 110.945 190.125 99.62C195.876 110.945 207.64 118.723 221.188 118.723C225.135 118.723 228.928 118.053 232.468 116.837V224.452Z" fill="#24A05A"/>
<path d="M148.041 128.258H39.8225C37.7515 128.258 36.0725 129.937 36.0725 132.008V208.162C36.0725 210.233 37.7515 211.912 39.8225 211.912H148.041C150.112 211.912 151.791 210.233 151.791 208.162V132.008C151.791 129.937 150.112 128.258 148.041 128.258ZM144.291 204.412H43.5725V135.758H144.291V204.412Z" fill="#24A05A"/>
</g>
</svg>
