<svg width="236" height="236" viewBox="0 0 236 236" fill="none" xmlns="http://www.w3.org/2000/svg">
<g opacity="0.1" clip-path="url(#clip0)">
<path d="M34.4156 39.2623C26.2694 39.2623 19.6655 45.8662 19.6655 54.0124V93.3457H29.4987V54.0124C29.4987 51.297 31.7002 49.0955 34.4156 49.0955H152.416V39.2623H34.4156Z" fill="#24A05A"/>
<path d="M34.4156 186.763C31.7002 186.763 29.4987 184.561 29.4987 181.846V132.679H19.6655V181.846C19.6655 189.992 26.2694 196.596 34.4156 196.596H83.5826V186.763H34.4156Z" fill="#24A05A"/>
<path d="M155.892 199.443L36.4857 80.0361C34.5658 78.1167 31.4536 78.1167 29.5333 80.0361L1.43951 108.13C-0.479838 110.05 -0.479838 113.162 1.43951 115.083L120.846 234.489C121.768 235.411 123.019 235.929 124.322 235.929C125.626 235.929 126.876 235.411 127.798 234.489L155.892 206.395C157.812 204.475 157.812 201.363 155.892 199.443ZM124.322 224.061L11.8678 111.606L33.0097 90.4644L145.464 202.919L124.322 224.061Z" fill="#24A05A"/>
<path d="M216.333 186.763H142.583V196.596H196.666V221.179C196.666 223.895 198.868 226.096 201.583 226.096H216.333C227.195 226.096 236 217.291 236 206.429C236 195.568 227.195 186.763 216.333 186.763ZM216.333 216.263H206.5V196.596H216.333C221.764 196.596 226.166 200.999 226.166 206.429C226.166 211.861 221.764 216.263 216.333 216.263Z" fill="#24A05A"/>
<path d="M216.333 39.2623H191.75V49.0955H216.333C221.764 49.0955 226.166 53.498 226.166 58.9288V206.429H236V58.9288C236 48.0672 227.195 39.2623 216.333 39.2623Z" fill="#24A05A"/>
<path d="M89.9416 139.035L75.1903 153.787L82.1434 160.74L96.8946 145.988L89.9416 139.035Z" fill="#24A05A"/>
<path d="M70.2754 119.369L55.5242 134.12L62.4772 141.073L77.2285 126.322L70.2754 119.369Z" fill="#24A05A"/>
<path d="M109.598 158.702L94.8464 173.454L101.8 180.407L116.551 165.655L109.598 158.702Z" fill="#24A05A"/>
<path d="M129.273 178.379L114.522 193.13L121.475 200.083L136.226 185.332L129.273 178.379Z" fill="#24A05A"/>
<path d="M50.5952 99.7018L35.8439 114.453L42.797 121.406L57.5483 106.655L50.5952 99.7018Z" fill="#24A05A"/>
<path d="M212.075 10.9814L205.28 4.18674C199.531 -1.30167 190.483 -1.30167 184.733 4.18674L109.97 78.9497C108.051 80.8695 108.051 83.9818 109.97 85.9021L130.36 106.292C131.28 107.217 132.532 107.736 133.836 107.732C135.14 107.732 136.39 107.214 137.312 106.292L212.075 31.5283C212.078 31.526 212.08 31.5237 212.082 31.5214C217.752 25.8477 217.749 16.6515 212.075 10.9814ZM205.128 24.5713L133.836 95.863L120.399 82.4256L191.691 11.1386C193.548 9.36447 196.472 9.36447 198.328 11.1386L205.128 17.9287C205.129 17.9296 205.13 17.9301 205.13 17.931C206.963 19.7651 206.962 22.7382 205.128 24.5713Z" fill="#24A05A"/>
<path d="M132.258 98.1542L111.038 105.239L118.123 83.9845L108.781 80.8722L98.5834 111.459C98.4166 111.96 98.3313 112.485 98.3313 113.013C98.3318 115.729 100.534 117.93 103.249 117.929C103.769 117.931 104.287 117.851 104.783 117.693L135.37 107.496L132.258 98.1542Z" fill="#24A05A"/>
<path d="M178.09 17.7759L171.137 24.729L191.527 45.1192L198.48 38.1661L178.09 17.7759Z" fill="#24A05A"/>
<path d="M177 108.096H103.25V117.929H177V108.096Z" fill="#24A05A"/>
<path d="M196.666 108.096H186.833V117.929H196.666V108.096Z" fill="#24A05A"/>
<path d="M216.333 108.096H206.5V117.929H216.333V108.096Z" fill="#24A05A"/>
</g>
<defs>
<clipPath id="clip0">
<rect width="236" height="236" fill="white"/>
</clipPath>
</defs>
</svg>
