<svg width="214" height="214" viewBox="0 0 214 214" fill="none" xmlns="http://www.w3.org/2000/svg">
<g opacity="0.1">
<path d="M174.767 0H39.2333C29.3893 0.0115917 21.4116 7.98933 21.4 17.8333V114.133C21.4116 123.977 29.3893 131.955 39.2333 131.967H88.0039L82.9107 149.8H71.3333V156.933H142.667V149.8H131.089L125.996 131.967H174.767C184.611 131.955 192.588 123.977 192.6 114.133V17.8333C192.588 7.98933 184.611 0.0115917 174.767 0ZM90.3294 149.8L95.4226 131.967H118.577L123.671 149.8H90.3294ZM185.467 114.133C185.467 120.043 180.676 124.833 174.767 124.833H39.2333C33.3238 124.833 28.5333 120.043 28.5333 114.133V107H185.467V114.133ZM185.467 99.8667H28.5333V17.8333C28.5333 11.9238 33.3238 7.13333 39.2333 7.13333H174.767C180.676 7.13333 185.467 11.9238 185.467 17.8333V99.8667Z" fill="#0C3263"/>
<path d="M135.533 164.067H35.6667C33.697 164.067 32.1 165.664 32.1 167.633V210.433C32.1 212.403 33.697 214 35.6667 214H135.533C137.503 214 139.1 212.403 139.1 210.433V167.633C139.1 165.664 137.503 164.067 135.533 164.067ZM131.967 206.867H39.2333V171.2H131.967V206.867Z" fill="#0C3263"/>
<path d="M53.5 192.6H46.3667V199.733H53.5V192.6Z" fill="#0C3263"/>
<path d="M53.5 178.333H46.3667V185.467H53.5V178.333Z" fill="#0C3263"/>
<path d="M67.7667 178.333H60.6333V185.467H67.7667V178.333Z" fill="#0C3263"/>
<path d="M82.0333 178.333H74.9V185.467H82.0333V178.333Z" fill="#0C3263"/>
<path d="M110.567 178.333H103.433V185.467H110.567V178.333Z" fill="#0C3263"/>
<path d="M96.3 178.333H89.1667V185.467H96.3V178.333Z" fill="#0C3263"/>
<path d="M124.833 192.6H117.7V199.733H124.833V192.6Z" fill="#0C3263"/>
<path d="M124.833 178.333H117.7V185.467H124.833V178.333Z" fill="#0C3263"/>
<path d="M110.567 192.6H60.6333V199.733H110.567V192.6Z" fill="#0C3263"/>
<path d="M164.067 164.067C154.218 164.067 146.233 172.051 146.233 181.9V196.167C146.233 206.016 154.218 214 164.067 214C173.916 214 181.9 206.016 181.9 196.167V181.9C181.9 172.051 173.916 164.067 164.067 164.067ZM174.767 196.167C174.767 202.076 169.976 206.867 164.067 206.867C158.157 206.867 153.367 202.076 153.367 196.167V181.9C153.367 175.99 158.157 171.2 164.067 171.2C169.976 171.2 174.767 175.99 174.767 181.9V196.167Z" fill="#0C3263"/>
<path d="M167.633 178.333H160.5V185.467H167.633V178.333Z" fill="#0C3263"/>
<path d="M110.688 31.1942L96.4084 81.0989L103.263 83.0604L117.543 33.1557L110.688 31.1942Z" fill="#0C3263"/>
<path d="M87.8827 41.9725L83.3173 36.4941L61.9173 54.3275C60.4046 55.5892 60.2009 57.838 61.4626 59.3511C61.6003 59.5161 61.7524 59.6686 61.9173 59.8059L83.3173 77.6392L87.8827 72.1608L69.7711 57.0667L87.8827 41.9725Z" fill="#0C3263"/>
<path d="M152.537 54.7822C152.4 54.6173 152.248 54.4648 152.083 54.3275L130.683 36.4941L126.117 41.9725L144.229 57.0667L126.117 72.1608L130.683 77.6392L152.083 59.8059C153.595 58.5442 153.799 56.2954 152.537 54.7822Z" fill="#0C3263"/>
</g>
</svg>
